#!OML:ASF H:\Terrain\Patient Classification 1\Takeo\Monday\TakeoMonday.ASF
:FULLY-SPECIFIED
:DEGREES
1313
root 17.6093 17.7211 1.92242 -3.74785 -36.5977 0.449554
lowerback 5.72444 4.58959 -0.93583
upperback 2.25145 6.0598 1.14321
thorax -1.09723 3.01507 1.28735
lowerneck -13.0285 1.26469 -1.22083
upperneck -10.5908 1.85886 3.06084
head -1.21765 0.910954 1.21325
rclavicle 2.54196e-014 6.36111e-015
rhumerus -16.2182 53.0255 -105.481
rradius 69.1097
rwrist -20.5789
rhand -37.3959 35.8298
rfingers 7.12502
rthumb -10.4566 6.10988
lclavicle 2.54196e-014 6.36111e-015
lhumerus -26.3221 -12.6235 99.4438
lradius 94.7475
lwrist 23.0345
lhand -29.6313 24.1449
lfingers 7.12502
lthumb -2.96141 54.1041
rfemur -5.4814 6.52864 7.89797
rtibia 56.8749
rfoot 5.89477 -11.5786
rtoes -16.2786
lfemur -3.3548 -8.84938 -24.2518
ltibia 24.936
lfoot -14.6401 4.07943
ltoes 0.0949134
1314
root 17.5958 17.7431 1.91892 -3.49 -36.9047 0.266958
lowerback 5.72827 4.56332 -0.884979
upperback 2.23673 6.02745 1.14518
thorax -1.10854 2.99906 1.26275
lowerneck -13.2173 1.47873 -0.821856
upperneck -10.6721 2.07362 2.69922
head -1.21102 1.0036 1.03707
rclavicle -3.1731e-014 1.27222e-014
rhumerus -16.7036 52.7884 -105.812
rradius 69.0197
rwrist -20.4314
rhand -38.0796 35.8492
rfingers 7.12502
rthumb -11.1161 6.16363
lclavicle -3.1731e-014 1.27222e-014
lhumerus -26.625 -12.7556 99.7859
lradius 94.5685
lwrist 23.1856
lhand -30.2387 24.1062
lfingers 7.12502
lthumb -3.54799 54.0564
rfemur -6.37911 6.72073 8.16993
rtibia 57.0657
rfoot 4.58978 -11.9943
rtoes -16.0736
lfemur -3.5481 -9.0252 -23.9551
ltibia 24.5518
lfoot -14.4226 3.93829
ltoes 4.24006
1315
root 17.5794 17.7577 1.92328 -3.60246 -37.057 0.378942
lowerback 5.76398 4.44363 -1.23512
upperback 2.32893 5.84978 1.28238
thorax -1.07702 2.90801 1.60893
lowerneck -13.3592 1.71866 -0.734054
upperneck -10.7525 2.36007 2.36758
head -1.21524 1.14214 0.925949
rclavicle 7.51158e-014 -1.19271e-014
rhumerus -17.2581 53.0104 -105.987
rradius 68.7805
rwrist -20.2573
rhand -38.5693 36.1138
rfingers 7.12502
rthumb -11.5884 6.45423
lclavicle 7.51158e-014 -1.19271e-014
lhumerus -26.7051 -12.522 100.239
lradius 94.2622
lwrist 23.1114
lhand -30.3354 24.9019
lfingers 7.12502
lthumb -3.64133 54.8506
rfemur -6.90506 6.84357 8.13663
rtibia 57.0367
rfoot 3.41339 -12.3999
rtoes -16.43
lfemur -3.37032 -9.13033 -24.0051
ltibia 24.1536
lfoot -14.1811 3.98
ltoes 5.71232
1316
root 17.5591 17.7634 1.93057 -3.66468 -37.2033 0.0854213
lowerback 5.96641 4.32046 -1.22424
upperback 2.39376 5.68647 1.52099
thorax -1.1393 2.82525 1.84518
lowerneck -11.3369 1.94969 -2.98622
upperneck -12.7622 3.08059 4.60179
head -2.30272 1.53821 2.04389
rclavicle -3.90115e-014 1.98785e-015
rhumerus -18.1082 53.1612 -106.323
rradius 68.6489
rwrist -20.2804
rhand -38.8057 36.5618
rfingers 7.12502
rthumb -11.8163 6.91518
lclavicle -3.90115e-014 1.98785e-015
lhumerus -26.8781 -12.158 100.666
lradius 93.9543
lwrist 22.9819
lhand -29.881 25.6123
lfingers 7.12502
lthumb -3.20255 55.5679
rfemur -7.07953 7.03449 8.51843
rtibia 56.8765
rfoot 2.08182 -12.8163
rtoes -17.1017
lfemur -2.78208 -9.17997 -23.7553
ltibia 23.7159
lfoot -13.9957 4.12297
ltoes 5.27832
1317
root 17.5407 17.7701 1.93361 -3.70521 -37.3125 0.325254
lowerback 5.83003 4.21573 -1.58582
upperback 2.3956 5.52971 1.55576
thorax -1.09221 2.74571 2.10248
lowerneck -11.1723 2.20529 -2.76009
upperneck -12.7977 3.34594 3.91915
head -2.33222 1.66733 1.77741
rclavicle -3.89618e-014 -5.1684e-015
rhumerus -18.9518 53.104 -106.713
rradius 68.7235
rwrist -20.2782
rhand -38.8225 36.9444
rfingers 7.12502
rthumb -11.8325 7.29872
lclavicle -3.89618e-014 -5.1684e-015
lhumerus -27.1219 -11.974 101.043
lradius 93.7745
lwrist 23.269
lhand -30.3954 24.3538
lfingers 7.12502
lthumb -3.69927 54.3014
rfemur -7.68445 7.04527 8.30548
rtibia 56.6968
rfoot 0.914444 -12.8655
rtoes -17.8931
lfemur -2.6261 -9.26781 -23.9217
ltibia 23.3599
lfoot -13.8819 4.22468
ltoes 5.24199
1318
root 17.5227 17.7767 1.93482 -4.00559 -37.3614 1.16796
lowerback 5.57943 4.11877 -2.29404
upperback 2.42876 5.36534 1.33054
thorax -0.953121 2.66021 2.29594
lowerneck -11.7409 2.37963 -2.00619
upperneck -12.2867 3.43295 3.00775
head -2.0322 1.69723 1.35308
rclavicle 6.10766e-014 -2.78299e-015
rhumerus -19.4096 52.9442 -106.98
rradius 68.8101
rwrist -20.3542
rhand -38.8019 36.8969
rfingers 7.12502
rthumb -11.8126 7.25009
lclavicle 6.10766e-014 -2.78299e-015
lhumerus -27.3595 -11.971 101.275
lradius 93.6838
lwrist 23.4323
lhand -30.4801 24.0205
lfingers 7.12502
lthumb -3.78106 53.9668
rfemur -8.47933 7.01318 7.48057
rtibia 56.4783
rfoot -0.00587369 -12.6802
rtoes -18.1123
lfemur -2.52475 -9.0772 -24.6241
ltibia 23.1622
lfoot -13.9879 4.46071
ltoes 2.56395
1319
root 17.5027 17.7742 1.93676 -4.20932 -37.4774 1.47488
lowerback 5.55279 4.04858 -2.39925
upperback 2.49317 5.26403 1.12224
thorax -0.855926 2.60751 2.1535
lowerneck -11.8466 2.50198 -1.72523
upperneck -12.3063 3.55753 2.88604
head -2.01641 1.74838 1.26847
rclavicle 3.06874e-014 -6.75868e-015
rhumerus -19.5756 52.8196 -107.167
rradius 68.7298
rwrist -20.5923
rhand -38.8706 36.5063
rfingers 7.12502
rthumb -11.8789 6.86327
lclavicle 3.06874e-014 -6.75868e-015
lhumerus -27.5758 -12.0119 101.321
lradius 93.4687
lwrist 22.9806
lhand -27.9496 27.2654
lfingers 7.12502
lthumb -1.33721 57.241
rfemur -8.94486 7.30651 7.2742
rtibia 56.1247
rfoot -1.05745 -13.04
rtoes -18.0544
lfemur -2.21849 -8.80293 -24.8755
ltibia 23.0274
lfoot -14.1394 4.69979
ltoes 0.0880665
